<?xml version='1.0' encoding='ascii'?>
<svg xmlns="http://www.w3.org/2000/svg" version="1.1" width="1920" height="1080">
    <g id="ViewLayer_LineSet" xmlns:inkscape="http://www.inkscape.org/namespaces/inkscape" inkscape:groupmode="lineset" inkscape:label="ViewLayer_LineSet">
        <g xmlns:inkscape="http://www.inkscape.org/namespaces/inkscape" inkscape:groupmode="layer" id="strokes" inkscape:label="strokes">
            <path fill="none" stroke-width="3.0" stroke-linecap="butt" stroke-opacity="1.0" stroke="rgb(110, 0, 83)" stroke-linejoin="round" d=" M 829.073, 672.715 825.395, 670.906 820.977, 679.877 816.559, 688.849 812.142, 697.820 811.298, 699.533 802.325, 695.119 793.351, 690.706 784.378, 686.293 775.404, 681.880 766.431, 677.467 757.457, 673.054 748.484, 668.640 739.510, 664.227 730.537, 659.814 724.116, 656.656 716.650, 653.449 709.186, 651.174 701.778, 649.852 694.474, 649.509 687.326, 650.166 680.384, 651.848 673.699, 654.578 667.321, 658.377 661.302, 663.271 655.692, 669.280 650.540, 676.430 645.899, 684.741 644.623, 687.587 643.414, 690.771 642.285, 694.239 641.245, 697.941 640.306, 701.826 639.479, 705.841 638.775, 709.935 638.205, 714.056 637.779, 718.154 637.510, 722.176 637.407, 726.071 637.482, 729.788 646.457, 734.198 655.432, 738.607 664.408, 743.017 668.013, 744.789 667.685, 740.559 667.504, 736.455 667.472, 732.474 667.590, 728.614 667.858, 724.872 668.279, 721.246 668.854, 717.733 669.583, 714.331 670.469, 711.037 671.512, 707.849 672.714, 704.764 674.075, 701.779 675.407, 699.372 677.056, 696.972 679.022, 694.659 681.303, 692.509 683.896, 690.601 686.799, 689.014 690.011, 687.825 693.530, 687.112 697.354, 686.955 701.481, 687.430 705.908, 688.617 710.634, 690.593 719.608, 695.005 728.582, 699.417 737.556, 703.829 746.530, 708.241 755.504, 712.653 764.478, 717.065 773.453, 721.477 782.427, 725.889 791.401, 730.301 795.223, 732.180 790.805, 741.151 786.387, 750.122 781.970, 759.094 777.552, 768.065 773.135, 777.036 769.592, 784.231 778.567, 788.641 787.542, 793.051 796.517, 797.461 798.990, 798.677 803.410, 789.707 807.830, 780.736 812.250, 771.766 816.669, 762.796 821.089, 753.826 824.631, 746.638 833.605, 751.050 842.579, 755.462 851.553, 759.874 858.809, 763.441 855.695, 753.938 852.580, 744.436 849.465, 734.933 846.351, 725.431 843.236, 715.928 840.122, 706.425 837.007, 696.923 833.892, 687.420 830.778, 677.918 829.073, 672.715 " />
            <path fill="none" stroke-width="3.0" stroke-linecap="butt" stroke-opacity="1.0" stroke="rgb(110, 0, 83)" stroke-linejoin="round" d=" M 759.701, 461.342 763.812, 470.458 767.923, 479.574 772.034, 488.690 776.145, 497.806 780.255, 506.922 784.366, 516.038 788.477, 525.153 792.588, 534.269 794.955, 539.518 785.295, 542.102 775.635, 544.686 765.974, 547.270 756.314, 549.854 746.653, 552.438 736.993, 555.022 727.333, 557.606 717.672, 560.190 710.182, 562.194 705.774, 571.170 701.367, 580.146 696.960, 589.123 692.552, 598.099 689.604, 604.104 699.275, 601.561 708.946, 599.018 718.618, 596.476 728.289, 593.933 737.960, 591.390 747.631, 588.847 757.303, 586.304 766.974, 583.761 776.645, 581.218 786.317, 578.675 795.988, 576.132 805.659, 573.590 809.314, 572.629 813.366, 581.771 817.417, 590.914 821.469, 600.056 825.520, 609.199 829.572, 618.341 833.623, 627.484 837.675, 636.626 841.726, 645.768 845.778, 654.911 849.829, 664.053 853.881, 673.196 857.165, 680.608 861.585, 671.637 866.005, 662.667 870.425, 653.697 874.845, 644.727 877.789, 638.751 873.708, 629.621 869.627, 620.492 865.546, 611.363 861.465, 602.233 857.384, 593.104 853.303, 583.975 849.222, 574.845 845.141, 565.716 844.290, 563.812 853.968, 561.295 863.646, 558.779 873.324, 556.262 883.002, 553.746 892.681, 551.229 902.359, 548.713 912.037, 546.197 921.715, 543.680 925.061, 542.810 929.481, 533.840 933.900, 524.870 938.320, 515.900 942.740, 506.929 945.369, 501.593 935.679, 504.064 925.989, 506.534 916.299, 509.004 906.609, 511.474 896.919, 513.944 887.229, 516.414 877.538, 518.884 867.848, 521.355 858.158, 523.825 848.468, 526.295 838.778, 528.765 829.759, 531.064 825.666, 521.940 821.573, 512.816 817.480, 503.692 813.387, 494.568 809.294, 485.444 805.201, 476.320 801.107, 467.196 797.014, 458.072 792.922, 448.948 788.828, 439.824 784.735, 430.700 780.642, 421.576 779.966, 420.069 775.559, 429.045 771.151, 438.022 766.744, 446.998 762.336, 455.974 759.701, 461.342 " />
            <path fill="none" stroke-width="3.0" stroke-linecap="butt" stroke-opacity="1.0" stroke="rgb(110, 0, 83)" stroke-linejoin="round" d=" M 920.620, 291.587 910.800, 289.701 908.519, 289.262 898.547, 288.508 896.402, 288.346 886.412, 288.794 884.418, 288.884 874.566, 290.600 872.711, 290.924 863.181, 293.954 861.428, 294.511 852.426, 298.865 850.716, 299.693 842.456, 305.329 840.721, 306.514 833.403, 313.330 831.588, 315.021 825.372, 322.855 823.464, 325.260 818.447, 333.911 816.494, 337.277 813.281, 344.154 810.515, 350.786 808.179, 357.216 806.256, 363.486 804.728, 369.637 803.577, 375.714 802.786, 381.756 802.337, 387.808 802.212, 393.911 802.394, 400.107 802.866, 406.439 803.609, 412.949 812.578, 417.370 821.547, 421.792 830.517, 426.214 835.305, 428.574 834.634, 422.299 834.179, 416.142 833.953, 410.104 833.964, 404.183 834.224, 398.377 834.742, 392.685 835.529, 387.106 836.595, 381.638 837.950, 376.281 839.604, 371.033 841.568, 365.893 843.852, 360.858 847.971, 353.368 852.527, 346.764 857.515, 341.048 862.931, 336.220 868.770, 332.282 875.025, 329.234 881.692, 327.077 888.766, 325.812 896.242, 325.439 904.113, 325.960 912.376, 327.375 921.024, 329.684 916.610, 338.657 912.197, 347.631 907.784, 356.604 903.371, 365.578 898.957, 374.551 894.544, 383.525 890.131, 392.498 885.718, 401.472 881.304, 410.445 876.891, 419.419 872.478, 428.392 868.064, 437.366 863.702, 446.235 872.839, 450.301 878.623, 452.874 888.080, 456.126 892.796, 457.748 902.530, 460.036 906.206, 460.900 916.138, 462.062 918.839, 462.378 928.838, 462.248 930.678, 462.224 940.556, 460.667 941.710, 460.485 951.230, 457.426 951.918, 457.205 960.827, 452.662 961.288, 452.427 969.358, 446.523 969.803, 446.197 976.878, 439.130 977.449, 438.559 983.454, 430.563 984.210, 429.557 989.147, 420.861 990.069, 419.235 993.921, 410.007 994.857, 407.765 997.476, 398.114 997.976, 396.272 999.262, 386.355 999.458, 384.847 999.347, 374.847 999.333, 373.582 997.808, 363.699 997.633, 362.570 994.723, 353.003 994.388, 351.901 990.170, 342.834 989.628, 341.669 984.217, 333.260 983.385, 331.966 976.921, 324.336 975.689, 322.882 968.323, 316.119 966.571, 314.511 958.456, 308.668 956.063, 306.945 947.345, 302.046 944.194, 300.276 935.008, 296.326 932.561, 295.274 923.006, 292.324 920.620, 291.587 " />
            <path fill="none" stroke-width="3.0" stroke-linecap="butt" stroke-opacity="1.0" stroke="rgb(110, 0, 83)" stroke-linejoin="round" d=" M 942.411, 341.157 948.060, 345.598 953.002, 350.241 957.228, 355.078 960.727, 360.101 963.490, 365.302 965.505, 370.672 966.764, 376.202 967.255, 381.886 966.968, 387.714 965.894, 393.677 964.022, 399.769 961.343, 405.980 958.249, 411.440 954.707, 416.200 950.749, 420.258 946.404, 423.610 941.703, 426.251 936.677, 428.178 931.355, 429.387 925.770, 429.874 919.951, 429.635 913.928, 428.666 907.732, 426.962 901.393, 424.521 905.808, 415.548 910.223, 406.575 914.638, 397.603 919.053, 388.630 923.468, 379.657 927.883, 370.685 932.298, 361.712 936.713, 352.739 941.128, 343.767 942.411, 341.157 " />
            <path fill="none" stroke-width="3.0" stroke-linecap="butt" stroke-opacity="1.0" stroke="rgb(110, 0, 83)" stroke-linejoin="round" d=" M 1225.320, 150.413 1216.358, 145.977 1207.396, 141.542 1198.433, 137.106 1192.863, 134.349 1188.439, 143.318 1184.016, 152.286 1179.592, 161.254 1175.168, 170.223 1170.744, 179.191 1166.320, 188.159 1161.896, 197.127 1157.473, 206.096 1153.049, 215.064 1149.776, 221.699 1140.812, 217.267 1131.848, 212.834 1122.884, 208.402 1113.920, 203.970 1104.956, 199.537 1095.991, 195.105 1087.027, 190.673 1078.063, 186.241 1069.099, 181.808 1060.135, 177.376 1051.171, 172.944 1042.207, 168.511 1033.243, 164.079 1024.279, 159.647 1015.315, 155.215 1006.351, 150.782 997.387, 146.350 988.422, 141.918 979.458, 137.485 970.494, 133.053 961.530, 128.621 952.566, 124.188 943.602, 119.756 934.638, 115.324 930.583, 113.319 926.175, 122.295 921.768, 131.271 917.360, 140.248 912.953, 149.224 912.759, 149.619 921.724, 154.050 930.688, 158.481 939.653, 162.912 948.618, 167.343 957.583, 171.774 966.547, 176.205 975.512, 180.636 984.477, 185.067 993.442, 189.498 1002.406, 193.929 1011.371, 198.360 1020.336, 202.791 1029.301, 207.221 1038.265, 211.652 1047.230, 216.083 1056.195, 220.514 1065.160, 224.945 1074.124, 229.376 1083.089, 233.807 1092.054, 238.238 1101.019, 242.669 1109.983, 247.100 1118.948, 251.531 1127.913, 255.962 1131.902, 257.934 1127.478, 266.902 1123.055, 275.870 1118.631, 284.839 1114.207, 293.807 1109.783, 302.775 1105.359, 311.744 1100.936, 320.712 1096.512, 329.680 1092.088, 338.648 1088.904, 345.104 1097.870, 349.532 1106.836, 353.959 1115.802, 358.387 1121.318, 361.111 1125.744, 352.144 1130.170, 343.177 1134.597, 334.210 1139.023, 325.242 1143.449, 316.275 1147.875, 307.308 1152.301, 298.341 1156.728, 289.374 1161.154, 280.407 1165.580, 271.440 1170.006, 262.473 1174.433, 253.506 1178.859, 244.539 1183.285, 235.572 1187.711, 226.605 1192.138, 217.638 1196.564, 208.670 1200.990, 199.703 1205.416, 190.736 1209.843, 181.769 1214.269, 172.802 1218.695, 163.835 1223.121, 154.868 1225.320, 150.413 " />
            <path fill="none" stroke-width="3.0" stroke-linecap="butt" stroke-opacity="1.0" stroke="rgb(110, 0, 83)" stroke-linejoin="round" d=" M 829.073, 672.715 825.395, 670.906 820.977, 679.877 816.559, 688.849 812.142, 697.820 811.298, 699.533 802.325, 695.119 793.351, 690.706 784.378, 686.293 775.404, 681.880 766.431, 677.467 757.457, 673.054 748.484, 668.640 739.510, 664.227 730.537, 659.814 724.116, 656.656 716.650, 653.449 709.186, 651.174 701.778, 649.852 694.474, 649.509 687.326, 650.166 680.384, 651.848 673.699, 654.578 667.321, 658.377 661.302, 663.271 655.692, 669.280 650.540, 676.430 645.899, 684.741 644.623, 687.587 643.414, 690.771 642.285, 694.239 641.245, 697.941 640.306, 701.826 639.479, 705.841 638.775, 709.935 638.205, 714.056 637.779, 718.154 637.510, 722.176 637.407, 726.071 637.482, 729.788 646.457, 734.198 655.432, 738.607 664.408, 743.017 668.013, 744.789 667.685, 740.559 667.504, 736.455 667.472, 732.474 667.590, 728.614 667.858, 724.872 668.279, 721.246 668.854, 717.733 669.583, 714.331 670.469, 711.037 671.512, 707.849 672.714, 704.764 674.075, 701.779 675.407, 699.372 677.056, 696.972 679.022, 694.659 681.303, 692.509 683.896, 690.601 686.799, 689.014 690.011, 687.825 693.530, 687.112 697.354, 686.955 701.481, 687.430 705.908, 688.617 710.634, 690.593 719.608, 695.005 728.582, 699.417 737.556, 703.829 746.530, 708.241 755.504, 712.653 764.478, 717.065 773.453, 721.477 782.427, 725.889 791.401, 730.301 795.223, 732.180 790.805, 741.151 786.387, 750.122 781.970, 759.094 777.552, 768.065 773.135, 777.036 769.592, 784.231 778.567, 788.641 787.542, 793.051 796.517, 797.461 798.990, 798.677 803.410, 789.707 807.830, 780.736 812.250, 771.766 816.669, 762.796 821.089, 753.826 824.631, 746.638 833.605, 751.050 842.579, 755.462 851.553, 759.874 858.809, 763.441 855.695, 753.938 852.580, 744.436 849.465, 734.933 846.351, 725.431 843.236, 715.928 840.122, 706.425 837.007, 696.923 833.892, 687.420 830.778, 677.918 829.073, 672.715 " />
            <path fill="none" stroke-width="3.0" stroke-linecap="butt" stroke-opacity="1.0" stroke="rgb(110, 0, 83)" stroke-linejoin="round" d=" M 759.701, 461.342 763.812, 470.458 767.923, 479.574 772.034, 488.690 776.145, 497.806 780.255, 506.922 784.366, 516.038 788.477, 525.153 792.588, 534.269 794.955, 539.518 785.295, 542.102 775.635, 544.686 765.974, 547.270 756.314, 549.854 746.653, 552.438 736.993, 555.022 727.333, 557.606 717.672, 560.190 710.182, 562.194 705.774, 571.170 701.367, 580.146 696.960, 589.123 692.552, 598.099 689.604, 604.104 699.275, 601.561 708.946, 599.018 718.618, 596.476 728.289, 593.933 737.960, 591.390 747.631, 588.847 757.303, 586.304 766.974, 583.761 776.645, 581.218 786.317, 578.675 795.988, 576.132 805.659, 573.590 809.314, 572.629 813.366, 581.771 817.417, 590.914 821.469, 600.056 825.520, 609.199 829.572, 618.341 833.623, 627.484 837.675, 636.626 841.726, 645.768 845.778, 654.911 849.829, 664.053 853.881, 673.196 857.165, 680.608 861.585, 671.637 866.005, 662.667 870.425, 653.697 874.845, 644.727 877.789, 638.751 873.708, 629.621 869.627, 620.492 865.546, 611.363 861.465, 602.233 857.384, 593.104 853.303, 583.975 849.222, 574.845 845.141, 565.716 844.290, 563.812 853.968, 561.295 863.646, 558.779 873.324, 556.262 883.002, 553.746 892.681, 551.229 902.359, 548.713 912.037, 546.197 921.715, 543.680 925.061, 542.810 929.481, 533.840 933.900, 524.870 938.320, 515.900 942.740, 506.929 945.369, 501.593 935.679, 504.064 925.989, 506.534 916.299, 509.004 906.609, 511.474 896.919, 513.944 887.229, 516.414 877.538, 518.884 867.848, 521.355 858.158, 523.825 848.468, 526.295 838.778, 528.765 829.759, 531.064 825.666, 521.940 821.573, 512.816 817.480, 503.692 813.387, 494.568 809.294, 485.444 805.201, 476.320 801.107, 467.196 797.014, 458.072 792.922, 448.948 788.828, 439.824 784.735, 430.700 780.642, 421.576 779.966, 420.069 775.559, 429.045 771.151, 438.022 766.744, 446.998 762.336, 455.974 759.701, 461.342 " />
            <path fill="none" stroke-width="3.0" stroke-linecap="butt" stroke-opacity="1.0" stroke="rgb(110, 0, 83)" stroke-linejoin="round" d=" M 920.620, 291.587 910.800, 289.701 908.519, 289.262 898.547, 288.508 896.402, 288.346 886.412, 288.794 884.418, 288.884 874.566, 290.600 872.711, 290.924 863.181, 293.954 861.428, 294.511 852.426, 298.865 850.716, 299.693 842.456, 305.329 840.721, 306.514 833.403, 313.330 831.588, 315.021 825.372, 322.855 823.464, 325.260 818.447, 333.911 816.494, 337.277 813.281, 344.154 810.515, 350.786 808.179, 357.216 806.256, 363.486 804.728, 369.637 803.577, 375.714 802.786, 381.756 802.337, 387.808 802.212, 393.911 802.394, 400.107 802.866, 406.439 803.609, 412.949 812.578, 417.370 821.547, 421.792 830.517, 426.214 835.305, 428.574 834.634, 422.299 834.179, 416.142 833.953, 410.104 833.964, 404.183 834.224, 398.377 834.742, 392.685 835.529, 387.106 836.595, 381.638 837.950, 376.281 839.604, 371.033 841.568, 365.893 843.852, 360.858 847.971, 353.368 852.527, 346.764 857.515, 341.048 862.931, 336.220 868.770, 332.282 875.025, 329.234 881.692, 327.077 888.766, 325.812 896.242, 325.439 904.113, 325.960 912.376, 327.375 921.024, 329.684 916.610, 338.657 912.197, 347.631 907.784, 356.604 903.371, 365.578 898.957, 374.551 894.544, 383.525 890.131, 392.498 885.718, 401.472 881.304, 410.445 876.891, 419.419 872.478, 428.392 868.064, 437.366 863.702, 446.235 872.839, 450.301 878.623, 452.874 888.080, 456.126 892.796, 457.748 902.530, 460.036 906.206, 460.900 916.138, 462.062 918.839, 462.378 928.838, 462.248 930.678, 462.224 940.556, 460.667 941.710, 460.485 951.230, 457.426 951.918, 457.205 960.827, 452.662 961.288, 452.427 969.358, 446.523 969.803, 446.197 976.878, 439.130 977.449, 438.559 983.454, 430.563 984.210, 429.557 989.147, 420.861 990.069, 419.235 993.921, 410.007 994.857, 407.765 997.476, 398.114 997.976, 396.272 999.262, 386.355 999.458, 384.847 999.347, 374.847 999.333, 373.582 997.808, 363.699 997.633, 362.570 994.723, 353.003 994.388, 351.901 990.170, 342.834 989.628, 341.669 984.217, 333.260 983.385, 331.966 976.921, 324.336 975.689, 322.882 968.323, 316.119 966.571, 314.511 958.456, 308.668 956.063, 306.945 947.345, 302.046 944.194, 300.276 935.008, 296.326 932.561, 295.274 923.006, 292.324 920.620, 291.587 " />
            <path fill="none" stroke-width="3.0" stroke-linecap="butt" stroke-opacity="1.0" stroke="rgb(110, 0, 83)" stroke-linejoin="round" d=" M 942.411, 341.157 948.060, 345.598 953.002, 350.241 957.228, 355.078 960.727, 360.101 963.490, 365.302 965.505, 370.672 966.764, 376.202 967.255, 381.886 966.968, 387.714 965.894, 393.677 964.022, 399.769 961.343, 405.980 958.249, 411.440 954.707, 416.200 950.749, 420.258 946.404, 423.610 941.703, 426.251 936.677, 428.178 931.355, 429.387 925.770, 429.874 919.951, 429.635 913.928, 428.666 907.732, 426.962 901.393, 424.521 905.808, 415.548 910.223, 406.575 914.638, 397.603 919.053, 388.630 923.468, 379.657 927.883, 370.685 932.298, 361.712 936.713, 352.739 941.128, 343.767 942.411, 341.157 " />
            <path fill="none" stroke-width="3.0" stroke-linecap="butt" stroke-opacity="1.0" stroke="rgb(110, 0, 83)" stroke-linejoin="round" d=" M 1225.320, 150.413 1216.358, 145.977 1207.396, 141.542 1198.433, 137.106 1192.863, 134.349 1188.439, 143.318 1184.016, 152.286 1179.592, 161.254 1175.168, 170.223 1170.744, 179.191 1166.320, 188.159 1161.896, 197.127 1157.473, 206.096 1153.049, 215.064 1149.776, 221.699 1140.812, 217.267 1131.848, 212.834 1122.884, 208.402 1113.920, 203.970 1104.956, 199.537 1095.991, 195.105 1087.027, 190.673 1078.063, 186.241 1069.099, 181.808 1060.135, 177.376 1051.171, 172.944 1042.207, 168.511 1033.243, 164.079 1024.279, 159.647 1015.315, 155.215 1006.351, 150.782 997.387, 146.350 988.422, 141.918 979.458, 137.485 970.494, 133.053 961.530, 128.621 952.566, 124.188 943.602, 119.756 934.638, 115.324 930.583, 113.319 926.175, 122.295 921.768, 131.271 917.360, 140.248 912.953, 149.224 912.759, 149.619 921.724, 154.050 930.688, 158.481 939.653, 162.912 948.618, 167.343 957.583, 171.774 966.547, 176.205 975.512, 180.636 984.477, 185.067 993.442, 189.498 1002.406, 193.929 1011.371, 198.360 1020.336, 202.791 1029.301, 207.221 1038.265, 211.652 1047.230, 216.083 1056.195, 220.514 1065.160, 224.945 1074.124, 229.376 1083.089, 233.807 1092.054, 238.238 1101.019, 242.669 1109.983, 247.100 1118.948, 251.531 1127.913, 255.962 1131.902, 257.934 1127.478, 266.902 1123.055, 275.870 1118.631, 284.839 1114.207, 293.807 1109.783, 302.775 1105.359, 311.744 1100.936, 320.712 1096.512, 329.680 1092.088, 338.648 1088.904, 345.104 1097.870, 349.532 1106.836, 353.959 1115.802, 358.387 1121.318, 361.111 1125.744, 352.144 1130.170, 343.177 1134.597, 334.210 1139.023, 325.242 1143.449, 316.275 1147.875, 307.308 1152.301, 298.341 1156.728, 289.374 1161.154, 280.407 1165.580, 271.440 1170.006, 262.473 1174.433, 253.506 1178.859, 244.539 1183.285, 235.572 1187.711, 226.605 1192.138, 217.638 1196.564, 208.670 1200.990, 199.703 1205.416, 190.736 1209.843, 181.769 1214.269, 172.802 1218.695, 163.835 1223.121, 154.868 1225.320, 150.413 " />
        </g>
    </g>
</svg>
