<?xml version='1.0' encoding='ascii'?>
<svg xmlns="http://www.w3.org/2000/svg" version="1.1" width="1920" height="1080">
    <g id="ViewLayer_LineSet" xmlns:inkscape="http://www.inkscape.org/namespaces/inkscape" inkscape:groupmode="lineset" inkscape:label="ViewLayer_LineSet">
        <g xmlns:inkscape="http://www.inkscape.org/namespaces/inkscape" inkscape:groupmode="layer" id="strokes" inkscape:label="strokes">
            <path fill="none" stroke-width="3.0" stroke-linecap="butt" stroke-opacity="1.0" stroke="rgb(110, 0, 83)" stroke-linejoin="round" d=" M 999.718, 794.308 994.584, 795.490 996.838, 805.233 999.091, 814.976 1001.344, 824.719 1003.597, 834.462 1003.812, 835.388 994.066, 837.630 984.321, 839.873 974.576, 842.115 964.830, 844.357 955.085, 846.600 945.339, 848.842 935.594, 851.084 925.849, 853.327 916.103, 855.569 906.358, 857.811 896.613, 860.054 886.867, 862.296 882.234, 863.362 872.616, 866.102 872.206, 866.219 862.940, 869.997 854.504, 874.680 846.968, 880.248 840.400, 886.685 834.870, 893.971 830.447, 902.089 827.198, 911.020 825.194, 920.747 824.537, 930.726 824.502, 931.252 825.113, 941.233 825.192, 942.515 826.946, 952.359 827.331, 954.518 828.375, 958.376 829.759, 962.513 831.454, 966.869 833.427, 971.385 835.648, 976.000 838.086, 980.654 840.710, 985.287 843.489, 989.839 846.393, 994.250 849.390, 998.461 852.450, 1002.410 855.541, 1006.039 865.287, 1003.800 875.033, 1001.560 884.779, 999.321 894.525, 997.082 898.044, 996.273 894.284, 992.338 890.773, 988.409 887.509, 984.483 884.492, 980.555 881.722, 976.623 879.196, 972.682 876.915, 968.729 874.878, 964.762 873.083, 960.775 871.531, 956.766 870.220, 952.731 869.149, 948.666 868.517, 945.199 868.208, 941.483 868.282, 937.595 868.802, 933.617 869.830, 929.625 871.426, 925.701 873.652, 921.922 876.570, 918.369 880.242, 915.120 884.730, 912.255 890.094, 909.854 896.396, 907.994 906.142, 905.753 915.887, 903.511 925.633, 901.270 935.378, 899.029 945.124, 896.788 954.870, 894.546 964.615, 892.305 974.361, 890.064 984.107, 887.822 993.852, 885.581 1003.598, 883.340 1014.331, 880.872 1016.584, 890.614 1018.837, 900.357 1021.090, 910.100 1023.343, 919.843 1025.597, 929.586 1027.850, 939.329 1030.103, 949.071 1031.093, 953.351 1040.839, 951.111 1050.585, 948.872 1060.331, 946.632 1070.077, 944.393 1072.100, 943.928 1069.851, 934.184 1067.602, 924.440 1065.353, 914.696 1063.104, 904.952 1060.855, 895.209 1058.606, 885.465 1056.357, 875.721 1055.367, 871.434 1065.113, 869.193 1074.858, 866.951 1084.604, 864.710 1094.349, 862.469 1103.082, 860.461 1094.659, 855.070 1086.237, 849.680 1077.814, 844.289 1069.391, 838.899 1060.968, 833.508 1052.546, 828.118 1044.123, 822.727 1035.700, 817.337 1027.277, 811.946 1018.855, 806.556 1010.432, 801.165 1002.009, 795.775 999.718, 794.308 " />
            <path fill="none" stroke-width="3.0" stroke-linecap="butt" stroke-opacity="1.0" stroke="rgb(110, 0, 83)" stroke-linejoin="round" d=" M 758.860, 640.293 767.809, 644.755 776.758, 649.217 785.708, 653.679 794.657, 658.141 803.607, 662.602 812.556, 667.064 821.505, 671.526 830.455, 675.988 839.404, 680.450 848.353, 684.912 857.479, 689.462 851.629, 697.572 845.780, 705.683 839.931, 713.794 834.081, 721.905 828.232, 730.016 822.382, 738.126 816.533, 746.237 810.684, 754.348 804.834, 762.459 798.985, 770.569 793.136, 778.680 791.639, 780.756 793.911, 790.494 796.184, 800.232 798.457, 809.971 800.729, 819.709 803.002, 829.447 805.248, 839.075 811.135, 830.991 817.021, 822.907 822.908, 814.823 828.794, 806.739 834.680, 798.655 840.567, 790.571 846.453, 782.487 852.340, 774.403 858.226, 766.319 864.113, 758.235 869.999, 750.151 875.885, 742.067 881.772, 733.983 887.658, 725.899 893.545, 717.815 898.686, 710.755 907.606, 715.275 916.526, 719.795 925.446, 724.315 934.366, 728.835 943.286, 733.355 952.207, 737.875 961.127, 742.395 970.047, 746.915 978.967, 751.435 987.888, 755.955 996.808, 760.475 1005.728, 764.995 1014.648, 769.515 1023.568, 774.035 1032.488, 778.555 1034.120, 779.381 1031.871, 769.638 1029.622, 759.894 1027.373, 750.150 1025.124, 740.406 1022.875, 730.662 1020.642, 720.989 1011.707, 716.499 1002.772, 712.008 993.837, 707.517 984.902, 703.027 975.967, 698.536 967.032, 694.045 958.097, 689.554 949.162, 685.064 940.227, 680.573 931.292, 676.082 926.332, 673.589 932.240, 665.521 938.149, 657.453 944.057, 649.386 949.966, 641.318 955.874, 633.250 961.783, 625.182 967.691, 617.115 973.600, 609.047 979.508, 600.979 985.417, 592.911 989.723, 587.032 987.474, 577.288 985.225, 567.544 982.976, 557.801 980.727, 548.057 978.478, 538.313 976.428, 529.433 970.483, 537.474 964.539, 545.516 958.594, 553.557 952.650, 561.598 946.705, 569.639 940.761, 577.681 934.816, 585.722 928.871, 593.763 922.927, 601.805 916.982, 609.846 911.038, 617.887 905.093, 625.928 899.149, 633.970 893.204, 642.011 887.260, 650.052 885.234, 652.792 876.293, 648.313 867.352, 643.834 858.411, 639.355 849.471, 634.876 840.530, 630.397 831.589, 625.918 822.648, 621.439 813.707, 616.960 804.766, 612.481 795.826, 608.002 786.885, 603.523 777.944, 599.044 769.003, 594.566 760.062, 590.087 751.121, 585.608 745.433, 582.758 747.706, 592.496 749.978, 602.235 752.251, 611.973 754.523, 621.711 756.796, 631.450 758.860, 640.293 " />
            <path fill="none" stroke-width="3.0" stroke-linecap="butt" stroke-opacity="1.0" stroke="rgb(110, 0, 83)" stroke-linejoin="round" d=" M 780.774, 340.220 771.981, 344.983 766.832, 347.773 758.641, 353.510 754.026, 356.742 746.583, 363.421 742.538, 367.052 736.006, 374.624 732.551, 378.629 727.101, 387.014 724.248, 391.402 720.045, 400.476 717.813, 405.295 714.996, 414.890 713.426, 420.237 712.084, 430.146 711.271, 436.152 711.424, 446.151 711.528, 452.968 713.123, 462.840 714.379, 470.612 716.782, 480.077 719.430, 488.934 722.340, 497.238 725.530, 505.047 729.017, 512.416 732.817, 519.403 736.948, 526.064 741.425, 532.455 746.266, 538.633 751.489, 544.655 757.109, 550.576 763.144, 556.454 772.887, 554.204 782.631, 551.954 792.375, 549.704 802.118, 547.454 807.382, 546.239 801.607, 540.535 796.146, 534.774 791.007, 528.944 786.200, 523.037 781.734, 517.043 777.617, 510.952 773.860, 504.755 770.471, 498.442 767.459, 492.003 764.833, 485.428 762.603, 478.708 760.778, 471.833 758.959, 462.000 758.777, 461.018 757.961, 451.051 757.934, 450.728 758.244, 440.969 759.702, 431.747 762.304, 423.065 766.047, 414.931 770.926, 407.348 776.936, 400.321 784.074, 393.856 792.212, 388.045 792.334, 387.958 801.029, 383.020 801.712, 382.632 810.822, 378.509 812.204, 377.883 814.466, 387.624 816.727, 397.365 818.989, 407.106 821.250, 416.847 823.512, 426.588 825.773, 436.329 828.035, 446.070 830.296, 455.810 832.558, 465.551 834.819, 475.292 837.081, 485.033 839.342, 494.774 841.604, 504.515 843.865, 514.256 846.127, 523.997 848.388, 533.738 850.012, 540.732 859.660, 538.101 869.307, 535.469 870.270, 535.207 879.650, 531.742 888.350, 528.529 897.337, 524.143 904.274, 520.757 912.701, 515.372 918.063, 511.946 925.725, 505.520 929.737, 502.154 936.402, 494.698 939.317, 491.436 944.755, 483.044 946.824, 479.851 950.850, 470.697 952.276, 467.454 954.793, 457.776 955.695, 454.303 956.705, 444.354 957.101, 440.454 956.696, 430.462 956.513, 425.964 954.838, 416.106 953.952, 410.890 951.100, 401.306 949.385, 395.544 945.311, 386.411 943.135, 381.533 937.860, 373.037 935.307, 368.924 928.897, 361.248 926.006, 357.786 918.574, 351.096 915.339, 348.185 907.033, 342.617 903.412, 340.189 894.409, 335.837 890.330, 333.865 880.818, 330.777 876.199, 329.278 866.365, 327.464 861.127, 326.497 851.143, 325.927 845.220, 325.588 835.239, 326.205 828.585, 326.617 818.736, 328.348 811.329, 329.650 801.718, 332.414 795.667, 334.154 786.406, 337.926 780.774, 340.220 " />
            <path fill="none" stroke-width="3.0" stroke-linecap="butt" stroke-opacity="1.0" stroke="rgb(110, 0, 83)" stroke-linejoin="round" d=" M 842.852, 371.882 852.097, 371.703 860.803, 372.303 868.955, 373.681 876.533, 375.837 883.522, 378.771 889.905, 382.483 895.664, 386.973 900.782, 392.242 905.243, 398.288 909.030, 405.113 912.125, 412.714 914.511, 421.094 915.873, 429.060 916.219, 436.694 915.577, 443.967 913.975, 450.850 911.440, 457.313 908.000, 463.330 903.681, 468.870 898.512, 473.905 892.519, 478.406 885.729, 482.345 878.170, 485.693 869.870, 488.421 867.611, 478.679 865.353, 468.938 863.094, 459.196 860.836, 449.454 858.578, 439.713 856.319, 429.971 854.061, 420.229 851.802, 410.488 849.544, 400.746 847.285, 391.004 845.027, 381.263 842.852, 371.882 " />
            <path fill="none" stroke-width="3.0" stroke-linecap="butt" stroke-opacity="1.0" stroke="rgb(110, 0, 83)" stroke-linejoin="round" d=" M 924.143, -39.721 926.384, -29.976 928.626, -20.230 930.867, -10.485 933.109, -0.739 935.350, 9.007 937.591, 18.752 939.833, 28.498 942.074, 38.243 944.316, 47.989 946.557, 57.734 948.798, 67.480 951.040, 77.226 952.372, 83.017 942.630, 85.276 932.889, 87.536 923.148, 89.795 913.406, 92.055 903.665, 94.314 893.923, 96.573 884.182, 98.833 874.441, 101.092 864.699, 103.352 854.958, 105.611 845.216, 107.871 835.475, 110.130 825.734, 112.389 815.992, 114.649 806.251, 116.908 796.509, 119.168 786.768, 121.427 777.027, 123.687 767.285, 125.946 757.544, 128.206 747.802, 130.465 738.061, 132.724 728.320, 134.984 718.578, 137.243 708.837, 139.503 699.095, 141.762 689.354, 144.022 679.613, 146.281 669.871, 148.541 660.130, 150.800 650.388, 153.059 645.425, 154.211 647.698, 163.949 649.970, 173.687 652.243, 183.426 654.515, 193.164 656.788, 202.902 657.280, 205.011 667.022, 202.752 676.763, 200.494 686.505, 198.236 696.247, 195.978 705.988, 193.719 715.730, 191.461 725.472, 189.203 735.213, 186.945 744.955, 184.686 754.697, 182.428 764.438, 180.170 774.180, 177.912 783.922, 175.653 793.663, 173.395 803.405, 171.137 813.147, 168.879 822.888, 166.620 832.630, 164.362 842.372, 162.104 852.114, 159.846 861.855, 157.587 871.597, 155.329 881.339, 153.071 891.080, 150.813 900.822, 148.554 910.564, 146.296 920.305, 144.038 930.047, 141.780 939.789, 139.521 949.530, 137.263 959.272, 135.005 964.073, 133.892 966.314, 143.638 968.556, 153.383 970.797, 163.129 973.038, 172.874 975.280, 182.620 977.521, 192.365 979.763, 202.111 982.004, 211.857 984.245, 221.602 986.487, 231.348 988.728, 241.093 990.970, 250.839 992.200, 256.187 1001.942, 253.932 1011.684, 251.676 1021.427, 249.421 1031.169, 247.166 1037.634, 245.669 1035.397, 235.922 1033.161, 226.176 1030.924, 216.429 1028.687, 206.682 1026.450, 196.936 1024.214, 187.189 1021.977, 177.442 1019.740, 167.696 1017.503, 157.949 1015.266, 148.203 1013.030, 138.456 1010.793, 128.709 1008.556, 118.963 1006.319, 109.216 1004.083, 99.469 1001.846, 89.723 999.609, 79.976 997.372, 70.229 995.135, 60.483 992.899, 50.736 990.662, 40.990 988.425, 31.243 986.188, 21.496 983.952, 11.750 981.715, 2.003 979.478, -7.744 977.241, -17.490 975.004, -27.237 972.768, -36.984 970.531, -46.730 969.711, -50.305 " />
            <path fill="none" stroke-width="3.0" stroke-linecap="butt" stroke-opacity="1.0" stroke="rgb(110, 0, 83)" stroke-linejoin="round" d=" M 999.718, 794.308 994.584, 795.490 996.838, 805.233 999.091, 814.976 1001.344, 824.719 1003.597, 834.462 1003.812, 835.388 994.066, 837.630 984.321, 839.873 974.576, 842.115 964.830, 844.357 955.085, 846.600 945.339, 848.842 935.594, 851.084 925.849, 853.327 916.103, 855.569 906.358, 857.811 896.613, 860.054 886.867, 862.296 882.234, 863.362 872.616, 866.102 872.206, 866.219 862.940, 869.997 854.504, 874.680 846.968, 880.248 840.400, 886.685 834.870, 893.971 830.447, 902.089 827.198, 911.020 825.194, 920.747 824.537, 930.726 824.502, 931.252 825.113, 941.233 825.192, 942.515 826.946, 952.359 827.331, 954.518 828.375, 958.376 829.759, 962.513 831.454, 966.869 833.427, 971.385 835.648, 976.000 838.086, 980.654 840.710, 985.287 843.489, 989.839 846.393, 994.250 849.390, 998.461 852.450, 1002.410 855.541, 1006.039 865.287, 1003.800 875.033, 1001.560 884.779, 999.321 894.525, 997.082 898.044, 996.273 894.284, 992.338 890.773, 988.409 887.509, 984.483 884.492, 980.555 881.722, 976.623 879.196, 972.682 876.915, 968.729 874.878, 964.762 873.083, 960.775 871.531, 956.766 870.220, 952.731 869.149, 948.666 868.517, 945.199 868.208, 941.483 868.282, 937.595 868.802, 933.617 869.830, 929.625 871.426, 925.701 873.652, 921.922 876.570, 918.369 880.242, 915.120 884.730, 912.255 890.094, 909.854 896.396, 907.994 906.142, 905.753 915.887, 903.511 925.633, 901.270 935.378, 899.029 945.124, 896.788 954.870, 894.546 964.615, 892.305 974.361, 890.064 984.107, 887.822 993.852, 885.581 1003.598, 883.340 1014.331, 880.872 1016.584, 890.614 1018.837, 900.357 1021.090, 910.100 1023.343, 919.843 1025.597, 929.586 1027.850, 939.329 1030.103, 949.071 1031.093, 953.351 1040.839, 951.111 1050.585, 948.872 1060.331, 946.632 1070.077, 944.393 1072.100, 943.928 1069.851, 934.184 1067.602, 924.440 1065.353, 914.696 1063.104, 904.952 1060.855, 895.209 1058.606, 885.465 1056.357, 875.721 1055.367, 871.434 1065.113, 869.193 1074.858, 866.951 1084.604, 864.710 1094.349, 862.469 1103.082, 860.461 1094.659, 855.070 1086.237, 849.680 1077.814, 844.289 1069.391, 838.899 1060.968, 833.508 1052.546, 828.118 1044.123, 822.727 1035.700, 817.337 1027.277, 811.946 1018.855, 806.556 1010.432, 801.165 1002.009, 795.775 999.718, 794.308 " />
            <path fill="none" stroke-width="3.0" stroke-linecap="butt" stroke-opacity="1.0" stroke="rgb(110, 0, 83)" stroke-linejoin="round" d=" M 758.860, 640.293 767.809, 644.755 776.758, 649.217 785.708, 653.679 794.657, 658.141 803.607, 662.602 812.556, 667.064 821.505, 671.526 830.455, 675.988 839.404, 680.450 848.353, 684.912 857.479, 689.462 851.629, 697.572 845.780, 705.683 839.931, 713.794 834.081, 721.905 828.232, 730.016 822.382, 738.126 816.533, 746.237 810.684, 754.348 804.834, 762.459 798.985, 770.569 793.136, 778.680 791.639, 780.756 793.911, 790.494 796.184, 800.232 798.457, 809.971 800.729, 819.709 803.002, 829.447 805.248, 839.075 811.135, 830.991 817.021, 822.907 822.908, 814.823 828.794, 806.739 834.680, 798.655 840.567, 790.571 846.453, 782.487 852.340, 774.403 858.226, 766.319 864.113, 758.235 869.999, 750.151 875.885, 742.067 881.772, 733.983 887.658, 725.899 893.545, 717.815 898.686, 710.755 907.606, 715.275 916.526, 719.795 925.446, 724.315 934.366, 728.835 943.286, 733.355 952.207, 737.875 961.127, 742.395 970.047, 746.915 978.967, 751.435 987.888, 755.955 996.808, 760.475 1005.728, 764.995 1014.648, 769.515 1023.568, 774.035 1032.488, 778.555 1034.120, 779.381 1031.871, 769.638 1029.622, 759.894 1027.373, 750.150 1025.124, 740.406 1022.875, 730.662 1020.642, 720.989 1011.707, 716.499 1002.772, 712.008 993.837, 707.517 984.902, 703.027 975.967, 698.536 967.032, 694.045 958.097, 689.554 949.162, 685.064 940.227, 680.573 931.292, 676.082 926.332, 673.589 932.240, 665.521 938.149, 657.453 944.057, 649.386 949.966, 641.318 955.874, 633.250 961.783, 625.182 967.691, 617.115 973.600, 609.047 979.508, 600.979 985.417, 592.911 989.723, 587.032 987.474, 577.288 985.225, 567.544 982.976, 557.801 980.727, 548.057 978.478, 538.313 976.428, 529.433 970.483, 537.474 964.539, 545.516 958.594, 553.557 952.650, 561.598 946.705, 569.639 940.761, 577.681 934.816, 585.722 928.871, 593.763 922.927, 601.805 916.982, 609.846 911.038, 617.887 905.093, 625.928 899.149, 633.970 893.204, 642.011 887.260, 650.052 885.234, 652.792 876.293, 648.313 867.352, 643.834 858.411, 639.355 849.471, 634.876 840.530, 630.397 831.589, 625.918 822.648, 621.439 813.707, 616.960 804.766, 612.481 795.826, 608.002 786.885, 603.523 777.944, 599.044 769.003, 594.566 760.062, 590.087 751.121, 585.608 745.433, 582.758 747.706, 592.496 749.978, 602.235 752.251, 611.973 754.523, 621.711 756.796, 631.450 758.860, 640.293 " />
            <path fill="none" stroke-width="3.0" stroke-linecap="butt" stroke-opacity="1.0" stroke="rgb(110, 0, 83)" stroke-linejoin="round" d=" M 780.774, 340.220 771.981, 344.983 766.832, 347.773 758.641, 353.510 754.026, 356.742 746.583, 363.421 742.538, 367.052 736.006, 374.624 732.551, 378.629 727.101, 387.014 724.248, 391.402 720.045, 400.476 717.813, 405.295 714.996, 414.890 713.426, 420.237 712.084, 430.146 711.271, 436.152 711.424, 446.151 711.528, 452.968 713.123, 462.840 714.379, 470.612 716.782, 480.077 719.430, 488.934 722.340, 497.238 725.530, 505.047 729.017, 512.416 732.817, 519.403 736.948, 526.064 741.425, 532.455 746.266, 538.633 751.489, 544.655 757.109, 550.576 763.144, 556.454 772.887, 554.204 782.631, 551.954 792.375, 549.704 802.118, 547.454 807.382, 546.239 801.607, 540.535 796.146, 534.774 791.007, 528.944 786.200, 523.037 781.734, 517.043 777.617, 510.952 773.860, 504.755 770.471, 498.442 767.459, 492.003 764.833, 485.428 762.603, 478.708 760.778, 471.833 758.959, 462.000 758.777, 461.018 757.961, 451.051 757.934, 450.728 758.244, 440.969 759.702, 431.747 762.304, 423.065 766.047, 414.931 770.926, 407.348 776.936, 400.321 784.074, 393.856 792.212, 388.045 792.334, 387.958 801.029, 383.020 801.712, 382.632 810.822, 378.509 812.204, 377.883 814.466, 387.624 816.727, 397.365 818.989, 407.106 821.250, 416.847 823.512, 426.588 825.773, 436.329 828.035, 446.070 830.296, 455.810 832.558, 465.551 834.819, 475.292 837.081, 485.033 839.342, 494.774 841.604, 504.515 843.865, 514.256 846.127, 523.997 848.388, 533.738 850.012, 540.732 859.660, 538.101 869.307, 535.469 870.270, 535.207 879.650, 531.742 888.350, 528.529 897.337, 524.143 904.274, 520.757 912.701, 515.372 918.063, 511.946 925.725, 505.520 929.737, 502.154 936.402, 494.698 939.317, 491.436 944.755, 483.044 946.824, 479.851 950.850, 470.697 952.276, 467.454 954.793, 457.776 955.695, 454.303 956.705, 444.354 957.101, 440.454 956.696, 430.462 956.513, 425.964 954.838, 416.106 953.952, 410.890 951.100, 401.306 949.385, 395.544 945.311, 386.411 943.135, 381.533 937.860, 373.037 935.307, 368.924 928.897, 361.248 926.006, 357.786 918.574, 351.096 915.339, 348.185 907.033, 342.617 903.412, 340.189 894.409, 335.837 890.330, 333.865 880.818, 330.777 876.199, 329.278 866.365, 327.464 861.127, 326.497 851.143, 325.927 845.220, 325.588 835.239, 326.205 828.585, 326.617 818.736, 328.348 811.329, 329.650 801.718, 332.414 795.667, 334.154 786.406, 337.926 780.774, 340.220 " />
            <path fill="none" stroke-width="3.0" stroke-linecap="butt" stroke-opacity="1.0" stroke="rgb(110, 0, 83)" stroke-linejoin="round" d=" M 842.852, 371.882 852.097, 371.703 860.803, 372.303 868.955, 373.681 876.533, 375.837 883.522, 378.771 889.905, 382.483 895.664, 386.973 900.782, 392.242 905.243, 398.288 909.030, 405.113 912.125, 412.714 914.511, 421.094 915.873, 429.060 916.219, 436.694 915.577, 443.967 913.975, 450.850 911.440, 457.313 908.000, 463.330 903.681, 468.870 898.512, 473.905 892.519, 478.406 885.729, 482.345 878.170, 485.693 869.870, 488.421 867.611, 478.679 865.353, 468.938 863.094, 459.196 860.836, 449.454 858.578, 439.713 856.319, 429.971 854.061, 420.229 851.802, 410.488 849.544, 400.746 847.285, 391.004 845.027, 381.263 842.852, 371.882 " />
            <path fill="none" stroke-width="3.0" stroke-linecap="butt" stroke-opacity="1.0" stroke="rgb(110, 0, 83)" stroke-linejoin="round" d=" M 924.143, -39.721 926.384, -29.976 928.626, -20.230 930.867, -10.485 933.109, -0.739 935.350, 9.007 937.591, 18.752 939.833, 28.498 942.074, 38.243 944.316, 47.989 946.557, 57.734 948.798, 67.480 951.040, 77.226 952.372, 83.017 942.630, 85.276 932.889, 87.536 923.148, 89.795 913.406, 92.055 903.665, 94.314 893.923, 96.573 884.182, 98.833 874.441, 101.092 864.699, 103.352 854.958, 105.611 845.216, 107.871 835.475, 110.130 825.734, 112.389 815.992, 114.649 806.251, 116.908 796.509, 119.168 786.768, 121.427 777.027, 123.687 767.285, 125.946 757.544, 128.206 747.802, 130.465 738.061, 132.724 728.320, 134.984 718.578, 137.243 708.837, 139.503 699.095, 141.762 689.354, 144.022 679.613, 146.281 669.871, 148.541 660.130, 150.800 650.388, 153.059 645.425, 154.211 647.698, 163.949 649.970, 173.687 652.243, 183.426 654.515, 193.164 656.788, 202.902 657.280, 205.011 667.022, 202.752 676.763, 200.494 686.505, 198.236 696.247, 195.978 705.988, 193.719 715.730, 191.461 725.472, 189.203 735.213, 186.945 744.955, 184.686 754.697, 182.428 764.438, 180.170 774.180, 177.912 783.922, 175.653 793.663, 173.395 803.405, 171.137 813.147, 168.879 822.888, 166.620 832.630, 164.362 842.372, 162.104 852.114, 159.846 861.855, 157.587 871.597, 155.329 881.339, 153.071 891.080, 150.813 900.822, 148.554 910.564, 146.296 920.305, 144.038 930.047, 141.780 939.789, 139.521 949.530, 137.263 959.272, 135.005 964.073, 133.892 966.314, 143.638 968.556, 153.383 970.797, 163.129 973.038, 172.874 975.280, 182.620 977.521, 192.365 979.763, 202.111 982.004, 211.857 984.245, 221.602 986.487, 231.348 988.728, 241.093 990.970, 250.839 992.200, 256.187 1001.942, 253.932 1011.684, 251.676 1021.427, 249.421 1031.169, 247.166 1037.634, 245.669 1035.397, 235.922 1033.161, 226.176 1030.924, 216.429 1028.687, 206.682 1026.450, 196.936 1024.214, 187.189 1021.977, 177.442 1019.740, 167.696 1017.503, 157.949 1015.266, 148.203 1013.030, 138.456 1010.793, 128.709 1008.556, 118.963 1006.319, 109.216 1004.083, 99.469 1001.846, 89.723 999.609, 79.976 997.372, 70.229 995.135, 60.483 992.899, 50.736 990.662, 40.990 988.425, 31.243 986.188, 21.496 983.952, 11.750 981.715, 2.003 979.478, -7.744 977.241, -17.490 975.004, -27.237 972.768, -36.984 970.531, -46.730 969.711, -50.305 " />
        </g>
    </g>
</svg>
